Coordinates
version=1
nRows=13
nColumns=40
inDegrees=yes

Units are S.I. units (second, meters, Newtons, ...)
If the header above contains a line with 'inDegrees', this indicates whether rotational values are in degrees (yes) or radians (no).

endheader
time	pelvis_tilt	pelvis_list	pelvis_rotation	pelvis_tx	pelvis_ty	pelvis_tz	hip_flexion_r	hip_adduction_r	hip_rotation_r	knee_angle_r	knee_angle_r_beta	ankle_angle_r	subtalar_angle_r	mtp_angle_r	hip_flexion_l	hip_adduction_l	hip_rotation_l	knee_angle_l	knee_angle_l_beta	ankle_angle_l	subtalar_angle_l	mtp_angle_l	lumbar_extension	lumbar_bending	lumbar_rotation	arm_flex_r	arm_add_r	arm_rot_r	elbow_flex_r	pro_sup_r	wrist_flex_r	wrist_dev_r	arm_flex_l	arm_add_l	arm_rot_l	elbow_flex_l	pro_sup_l	wrist_flex_l	wrist_dev_l
      8.11666667	    -12.02708602	     -1.43847705	      5.81014019	     -0.22702705	      1.14523596	     -0.02271525	     50.73135201	     -7.42540960	     -6.73744087	     51.36030965	      0.89640651	      3.64345999	     -3.32712190	      0.00000000	     78.18375422	     -6.09987874	     10.65393022	    113.58966709	      1.98251369	     11.18501710	      7.07255332	      0.00000000	    -55.42594376	      4.57016712	      0.36056099	     80.39868585	    -15.17956187	     49.30681683	     26.69733586	     72.13363928	      0.00000000	      0.00000000	     77.99417341	     -7.83988467	     27.40378955	     31.46318235	     75.04051452	      0.00000000	      0.00000000
      8.12500000	    -12.09690463	     -0.99861370	      5.78204114	     -0.22650876	      1.14582155	     -0.02322645	     49.13016755	     -7.70560348	     -6.89093854	     49.94935491	      0.87178070	      3.10192776	     -3.11819389	      0.00000000	     79.75106362	     -5.80211686	     10.28397192	    114.59628759	      2.00008253	     11.80613904	      7.32833032	      0.00000000	    -55.41819094	      4.11085866	     -0.00242260	     80.25471790	    -15.20909198	     49.06733095	     26.64656022	     72.08952987	      0.00000000	      0.00000000	     78.04597541	     -7.75336582	     27.45111952	     31.50526766	     74.97836708	      0.00000000	      0.00000000
      8.13333333	    -11.73890654	     -1.10415494	      6.04719037	     -0.22572613	      1.14743168	     -0.02377305	     46.92791584	     -7.80103492	     -7.84302088	     48.51328289	      0.84671652	      2.29378570	     -2.35408292	      0.00000000	     80.98255518	     -5.35611905	     10.68861572	    115.40244154	      2.01415257	     12.96776055	      8.16804917	      0.00000000	    -55.89402812	      4.26678310	      0.04237383	     80.21557875	    -15.27363204	     48.54464075	     26.71316485	     72.43494339	      0.00000000	      0.00000000	     78.23527013	     -7.63123910	     27.71785747	     31.40814462	     74.98650133	      0.00000000	      0.00000000
      8.14166667	    -11.80371065	     -0.75292030	      5.93192550	     -0.22543504	      1.14820387	     -0.02410130	     45.58354327	     -7.95634503	     -7.87138151	     47.62230147	      0.83116596	      1.79185309	     -2.23066427	      0.00000000	     82.49194398	     -5.21495142	     10.26116631	    115.83865947	      2.02176601	     13.36914795	      8.26930967	      0.00000000	    -55.93587840	      3.81521765	     -0.19440092	     80.14429623	    -15.29088152	     48.34294199	     26.61051342	     72.39687515	      0.00000000	      0.00000000	     78.32402601	     -7.57729628	     27.78668330	     31.42785480	     74.93392346	      0.00000000	      0.00000000
      8.15000000	    -11.45992575	     -0.64990573	      5.85505704	     -0.22477832	      1.14982233	     -0.02434558	     43.80181975	     -7.94915084	     -8.21703923	     46.86177640	      0.81789229	      1.25034312	     -1.79128670	      0.00000000	     83.46459220	     -5.16867218	     10.16158581	    115.98122887	      2.02425431	     13.94744711	      8.93334146	      0.00000000	    -56.41926475	      3.58240106	     -0.21232537	     80.13743837	    -15.32603198	     47.83108029	     26.55521006	     72.62631536	      0.00000000	      0.00000000	     78.53164960	     -7.56322888	     28.14691139	     31.35294392	     74.95068222	      0.00000000	      0.00000000
      8.15833333	    -11.39783960	     -0.44286164	      5.62325002	     -0.22441943	      1.15058993	     -0.02461270	     42.60218818	     -7.95497462	     -8.21939831	     46.53645241	      0.81221432	      1.05717887	     -1.72885998	      0.00000000	     84.62219348	     -5.15335473	      9.77654303	    115.95163838	      2.02373786	     14.32802944	      8.91925284	      0.00000000	    -56.59340273	      3.17611634	     -0.22239922	     80.21399118	    -15.31697791	     47.70881862	     26.63754831	     72.51946530	      0.00000000	      0.00000000	     78.62666970	     -7.46679822	     28.16784367	     31.39705625	     74.89486614	      0.00000000	      0.00000000
      8.16666667	    -11.28354253	     -0.38132317	      5.42794929	     -0.22411940	      1.15121641	     -0.02484985	     41.61928439	     -7.87512218	     -8.20592972	     46.76782539	      0.81625254	      1.00539838	     -1.71690060	      0.00000000	     85.65596483	     -5.08400000	      9.55280189	    115.67867932	      2.01897383	     14.45259792	      8.90034173	      0.00000000	    -56.77405264	      2.89696627	     -0.25188133	     79.99209673	    -15.40210508	     47.70296337	     26.58520360	     72.49199702	      0.00000000	      0.00000000	     78.69253017	     -7.48739277	     28.14634971	     31.47181141	     74.83405259	      0.00000000	      0.00000000
      8.17500000	    -10.70359462	     -0.13133639	      4.97645764	     -0.22346203	      1.15335966	     -0.02480882	     40.13977187	     -7.77113422	     -7.88583397	     46.95868906	      0.81958374	      0.99401044	     -1.60808391	      0.00000000	     85.73418833	     -5.25165565	      9.03763644	    115.01671916	      2.00742044	     15.32627152	      8.65592708	      0.00000000	    -57.53862143	      2.33395807	     -0.21248940	     80.18731876	    -15.33993337	     47.76514775	     25.93676944	     73.10015883	      0.00000000	      0.00000000	     78.96461914	     -7.41037813	     28.30794284	     31.27450518	     74.81661259	      0.00000000	      0.00000000
      8.18333333	    -10.57802730	     -0.19284895	      4.73769515	     -0.22342320	      1.15424121	     -0.02494851	     39.41219232	     -7.61255944	     -7.94496264	     47.63277640	      0.83134878	      1.10722671	     -1.63711896	      0.00000000	     86.41170996	     -5.21842784	      8.92955050	    114.05472631	      1.99063050	     15.33998197	      8.62060098	      0.00000000	    -57.77410831	      2.14163214	     -0.07508223	     80.25232265	    -15.35856405	     47.67592973	     26.02303981	     73.02960420	      0.00000000	      0.00000000	     79.04323739	     -7.39230792	     28.24896109	     31.44304384	     74.68695675	      0.00000000	      0.00000000
      8.19166667	    -10.48341329	     -0.35500021	      4.44857983	     -0.22362621	      1.15530818	     -0.02483192	     38.82552013	     -7.37615541	     -8.07880825	     48.48786640	      0.84627292	      1.30858765	     -1.71258180	      0.00000000	     86.76892491	     -5.22324101	      8.85602384	    112.81195476	      1.96894005	     15.35459033	      8.55841933	      0.00000000	    -57.98974635	      1.97756485	      0.16007111	     80.30439837	    -15.38757496	     47.65495209	     26.01596197	     73.04304766	      0.00000000	      0.00000000	     79.12415622	     -7.35727076	     28.19347282	     31.50368645	     74.63800346	      0.00000000	      0.00000000
      8.20000000	    -10.03805994	      0.02262336	      4.10646435	     -0.22343405	      1.15641062	     -0.02506033	     38.41177648	     -7.55024675	     -7.53396793	     50.32838272	      0.87839599	      2.04044602	     -2.52316491	      0.00000000	     86.45289280	     -5.14484779	      8.19235205	    111.32220052	      1.94293893	     16.09859300	      8.03332142	      0.00000000	    -58.52077268	      1.45937070	      0.04694518	     80.47583278	    -15.38243772	     47.68501608	     25.65384046	     73.67614598	      0.00000000	      0.00000000	     79.30345551	     -7.16462059	     28.03273137	     31.26716321	     74.73184785	      0.00000000	      0.00000000
      8.20833333	     -9.97531817	      0.13047291	      3.89846778	     -0.22377743	      1.15680593	     -0.02549669	     38.60442722	     -7.66194934	     -7.29338236	     52.41121739	      0.91474831	      2.69754352	     -3.15385967	      0.00000000	     86.29198723	     -4.89563905	      7.77753435	    109.61543759	      1.91315030	     16.44704371	      7.51634423	      0.00000000	    -58.62914379	      1.25965968	      0.03106746	     80.58018447	    -15.32706962	     47.53542362	     25.47019228	     74.03722837	      0.00000000	      0.00000000	     79.32343750	     -7.06910445	     27.75676948	     31.22132829	     74.82998848	      0.00000000	      0.00000000
      8.21666667	     -9.71564214	     -0.13974417	      3.72745327	     -0.22390865	      1.15726803	     -0.02554958	     38.73790411	     -7.42066125	     -7.22702785	     54.74284594	      0.95544290	      3.03514567	     -3.45636714	      0.00000000	     85.85493623	     -4.80541015	      7.87405286	    107.71448429	      1.87997240	     16.50245613	      7.30310105	      0.00000000	    -58.89808805	      1.31670170	      0.35651573	     80.68725031	    -15.30655175	     47.41653312	     25.49709105	     74.02019161	      0.00000000	      0.00000000	     79.32205404	     -6.96238798	     27.59661002	     31.28228347	     74.78164292	      0.00000000	      0.00000000
